<svg xmlns="http://www.w3.org/2000/svg" viewBox="0 0 200 200" width="200" height="200">
  <rect width="200" height="200" rx="40" fill="#00338D"/>
  <path d="M148 142H56C37 142 22 127 22 108C22 91 33 78 50 74C50 73 50 72 50 70C50 52 65 38 84 38C99 38 111 47 117 60C122 57 128 55 135 55C152 55 166 69 166 86C166 88 165 90 165 92C174 97 178 106 178 116C178 130 164 142 148 142" stroke="#FFFFFF" stroke-width="11" stroke-linecap="round" stroke-linejoin="round" fill="none"/>
  <text x="100" y="158" font-family="Helvetica Neue,Arial,sans-serif" font-size="52" font-weight="900" fill="#FFFFFF" text-anchor="middle" letter-spacing="-1">GC</text>
</svg>
